ply
format ascii 1.0
element vertex 161
property float x
property float y
property float z
element face 1309
property list uchar int vertex_index
end_header
-0.500000 -0.500000 -0.625000
-0.500000 -0.625000 -0.500000
-0.625000 -0.500000 -0.500000
-0.250000 -0.750000 -0.625000
-0.250000 -0.875000 -0.500000
-0.375000 -0.750000 -0.500000
-0.250000 -0.875000 -0.250000
-0.500000 -0.875000 -0.250000
-0.500000 -0.750000 -0.375000
-0.500000 -0.875000 0.000000
-0.250000 -0.875000 0.000000
-0.250000 -0.500000 -0.875000
-0.250000 -0.625000 -0.750000
-0.375000 -0.500000 -0.750000
-0.375000 -0.750000 -0.750000
-0.500000 -0.625000 -0.750000
-0.250000 -0.250000 -0.875000
-0.500000 -0.250000 -0.875000
-0.500000 -0.375000 -0.750000
-0.500000 0.000000 -0.875000
-0.250000 0.000000 -0.875000
0.000000 -0.750000 -0.625000
0.000000 -0.875000 -0.500000
0.000000 -0.875000 -0.250000
-0.125000 -1.000000 0.000000
0.000000 -1.000000 -0.125000
0.000000 -0.500000 -0.875000
0.000000 -0.625000 -0.750000
0.000000 -0.250000 -0.875000
-0.125000 0.000000 -1.000000
0.000000 -0.125000 -1.000000
0.250000 -0.750000 -0.625000
0.250000 -0.875000 -0.500000
0.250000 -0.875000 -0.250000
0.250000 -0.875000 0.000000
0.125000 -1.000000 0.000000
0.250000 -0.875000 0.250000
0.000000 -0.875000 0.250000
0.000000 -1.000000 0.125000
0.000000 -0.875000 0.500000
0.250000 -0.875000 0.500000
0.250000 -0.500000 -0.875000
0.250000 -0.625000 -0.750000
0.250000 -0.250000 -0.875000
0.250000 0.000000 -0.875000
0.125000 0.000000 -1.000000
0.250000 0.250000 -0.875000
0.000000 0.250000 -0.875000
0.000000 0.125000 -1.000000
0.000000 0.500000 -0.875000
0.250000 0.500000 -0.875000
0.375000 -0.750000 -0.500000
0.500000 -0.875000 -0.250000
0.500000 -0.750000 -0.375000
0.500000 -0.875000 0.000000
0.500000 -0.875000 0.250000
0.500000 -0.750000 0.375000
0.375000 -0.750000 0.500000
0.375000 -0.500000 -0.750000
0.500000 -0.750000 -0.625000
0.500000 -0.625000 -0.750000
0.500000 -0.500000 -0.625000
0.500000 -0.250000 -0.875000
0.500000 -0.375000 -0.750000
0.500000 0.000000 -0.875000
0.500000 0.250000 -0.875000
0.375000 0.500000 -0.750000
0.500000 0.375000 -0.750000
0.500000 0.500000 -0.625000
0.500000 -0.625000 -0.500000
0.500000 -0.625000 0.500000
0.625000 -0.750000 -0.250000
0.625000 -0.750000 0.000000
0.625000 -0.750000 0.250000
0.625000 -0.500000 -0.500000
0.750000 -0.750000 -0.375000
0.750000 -0.625000 -0.500000
0.750000 -0.500000 -0.375000
0.750000 -0.625000 -0.250000
0.750000 -0.625000 0.000000
0.750000 -0.625000 0.250000
0.750000 -0.625000 0.500000
0.625000 -0.750000 0.500000
0.625000 -0.500000 0.500000
0.500000 -0.500000 0.625000
0.625000 -0.250000 -0.750000
0.750000 -0.500000 -0.625000
0.750000 -0.375000 -0.750000
0.750000 -0.250000 -0.625000
0.750000 -0.375000 -0.500000
0.750000 -0.500000 0.375000
0.750000 -0.375000 0.500000
0.750000 -0.375000 0.750000
0.625000 -0.500000 0.750000
0.500000 -0.375000 0.750000
0.625000 -0.250000 0.750000
0.500000 -0.250000 0.875000
0.625000 0.000000 -0.750000
0.750000 0.000000 -0.625000
0.750000 -0.250000 0.625000
0.625000 0.000000 0.750000
0.750000 0.000000 0.625000
0.500000 0.000000 0.875000
0.625000 0.250000 -0.750000
0.750000 0.250000 -0.625000
0.625000 0.250000 0.750000
0.750000 0.250000 0.625000
0.500000 0.250000 0.875000
0.750000 0.500000 -0.625000
0.625000 0.500000 -0.750000
0.750000 0.375000 -0.500000
0.625000 0.500000 -0.500000
0.750000 0.500000 -0.375000
0.750000 0.500000 0.375000
0.750000 0.375000 0.500000
0.625000 0.500000 0.500000
0.625000 0.500000 0.750000
0.750000 0.375000 0.750000
0.500000 0.375000 0.750000
0.500000 0.625000 -0.500000
0.750000 0.750000 -0.375000
0.625000 0.750000 -0.500000
0.500000 0.750000 -0.375000
0.750000 0.625000 -0.250000
0.625000 0.750000 -0.250000
0.625000 0.750000 0.000000
0.750000 0.625000 0.000000
0.625000 0.750000 0.250000
0.750000 0.625000 0.250000
0.625000 0.750000 0.500000
0.750000 0.625000 0.500000
0.500000 0.625000 0.500000
0.500000 0.500000 0.625000
0.500000 0.875000 -0.250000
0.500000 0.875000 0.000000
0.500000 0.875000 0.250000
0.500000 0.750000 0.375000
0.875000 -0.500000 -0.250000
0.875000 -0.500000 0.000000
0.875000 -0.500000 0.250000
0.875000 -0.250000 -0.500000
0.875000 -0.250000 -0.250000
0.875000 -0.250000 0.000000
0.875000 -0.250000 0.250000
0.875000 -0.250000 0.500000
0.875000 0.000000 -0.500000
0.875000 0.000000 -0.250000
1.000000 -0.125000 0.000000
1.000000 0.000000 -0.125000
0.875000 0.000000 0.250000
1.000000 0.000000 0.125000
0.875000 0.000000 0.500000
0.875000 0.250000 -0.500000
0.875000 0.250000 -0.250000
0.875000 0.250000 0.000000
1.000000 0.125000 0.000000
0.875000 0.250000 0.250000
0.875000 0.250000 0.500000
0.875000 0.500000 -0.250000
0.875000 0.500000 0.000000
0.875000 0.500000 0.250000
3 0 1 2 
3 3 4 5 
3 6 4 7 
4 4 5 8 7 
4 7 9 10 6 
3 11 12 13 
6 14 15 1 5 3 12 
3 5 1 8 
3 16 11 17 
4 11 13 18 17 
3 13 18 0 
4 17 19 20 16 
4 21 22 4 3 
4 4 6 23 22 
3 6 10 23 
4 10 24 25 23 
4 26 27 12 11 
4 12 3 21 27 
4 11 16 28 26 
3 16 20 28 
4 20 29 30 28 
3 6 4 7 
4 4 5 8 7 
4 7 9 10 6 
3 5 1 8 
4 4 6 23 22 
3 6 10 23 
4 10 24 25 23 
3 16 11 17 
4 11 13 18 17 
3 13 18 0 
4 17 19 20 16 
4 11 16 28 26 
3 16 20 28 
4 20 29 30 28 
4 31 32 22 21 
4 22 23 33 32 
3 33 23 34 
4 23 25 35 34 
3 36 34 37 
4 34 35 38 37 
4 37 39 40 36 
4 41 42 27 26 
4 27 21 31 42 
4 26 28 43 41 
3 43 28 44 
4 28 30 45 44 
3 46 44 47 
4 44 45 48 47 
4 47 49 50 46 
3 31 32 51 
3 33 32 52 
4 32 51 53 52 
4 33 34 54 52 
4 34 36 55 54 
3 36 55 40 
4 55 56 57 40 
3 41 42 58 
6 42 31 59 60 61 58 
3 43 41 62 
4 41 58 63 62 
4 43 44 64 62 
4 44 46 65 64 
3 46 50 65 
4 50 66 67 65 
3 67 66 68 
4 22 23 33 32 
3 33 23 34 
4 23 25 35 34 
3 36 34 37 
4 34 35 38 37 
4 37 39 40 36 
3 33 32 52 
4 32 51 53 52 
4 33 34 54 52 
4 34 36 55 54 
3 36 55 40 
4 55 56 57 40 
3 51 69 53 
3 36 34 37 
4 34 35 38 37 
4 37 39 40 36 
4 34 36 55 54 
3 36 55 40 
4 55 56 57 40 
3 56 57 70 
4 26 28 43 41 
3 43 28 44 
4 28 30 45 44 
3 46 44 47 
4 44 45 48 47 
4 47 49 50 46 
3 43 41 62 
4 41 58 63 62 
3 58 63 61 
4 43 44 64 62 
4 44 46 65 64 
3 46 50 65 
4 50 66 67 65 
3 67 66 68 
3 46 44 47 
4 44 45 48 47 
4 47 49 50 46 
4 44 46 65 64 
3 46 50 65 
4 50 66 67 65 
3 67 66 68 
3 53 52 71 
4 52 71 72 54 
4 54 72 73 55 
3 55 73 56 
3 61 69 74 
6 69 53 75 76 77 74 
4 71 78 79 72 
4 72 79 80 73 
6 73 80 81 82 70 56 
3 70 83 84 
3 62 63 85 
6 63 61 86 87 88 85 
3 74 89 77 
3 90 83 91 
6 83 91 92 93 94 84 
3 94 95 96 
4 62 85 97 64 
4 85 88 98 97 
4 99 95 100 101 
4 95 96 102 100 
4 64 97 103 65 
4 97 98 104 103 
4 101 100 105 106 
4 100 102 107 105 
3 65 103 67 
6 103 104 108 109 68 67 
3 110 111 112 
3 113 114 115 
6 114 115 116 117 105 106 
3 105 118 107 
3 68 111 119 
6 111 112 120 121 122 119 
4 123 124 125 126 
4 126 125 127 128 
6 128 127 129 130 115 113 
3 115 131 132 
3 122 124 133 
4 124 133 134 125 
4 125 134 135 127 
3 127 135 136 
3 77 78 137 
4 78 137 138 79 
4 79 138 139 80 
3 80 139 90 
3 88 89 140 
3 141 140 137 
4 140 89 77 137 
4 137 138 142 141 
4 138 139 143 142 
3 143 139 144 
4 139 90 91 144 
3 91 144 99 
4 88 140 145 98 
4 140 141 146 145 
3 141 142 146 
4 142 147 148 146 
3 143 142 149 
4 142 147 150 149 
4 143 144 151 149 
4 144 99 101 151 
4 98 145 152 104 
4 145 146 153 152 
3 153 146 154 
4 146 148 155 154 
3 156 154 149 
4 154 155 150 149 
4 149 151 157 156 
4 151 101 106 157 
3 104 152 110 
3 153 152 158 
4 152 110 112 158 
4 153 154 159 158 
4 154 156 160 159 
3 156 157 160 
4 157 114 113 160 
3 157 114 106 
3 112 158 123 
4 158 123 126 159 
4 159 126 128 160 
3 160 128 113 
3 53 52 71 
4 52 71 72 54 
4 54 72 73 55 
3 55 73 56 
6 69 53 75 76 77 74 
4 71 78 79 72 
4 72 79 80 73 
6 73 80 81 82 70 56 
3 70 83 84 
3 74 89 77 
3 90 83 91 
6 83 91 92 93 94 84 
3 94 95 96 
4 99 95 100 101 
4 95 96 102 100 
4 101 100 105 106 
4 100 102 107 105 
3 113 114 115 
6 114 115 116 117 105 106 
3 105 118 107 
6 111 112 120 121 122 119 
4 123 124 125 126 
4 126 125 127 128 
6 128 127 129 130 115 113 
3 115 131 132 
3 122 124 133 
4 124 133 134 125 
4 125 134 135 127 
3 127 135 136 
3 77 78 137 
4 78 137 138 79 
4 79 138 139 80 
3 80 139 90 
3 141 140 137 
4 140 89 77 137 
4 137 138 142 141 
4 138 139 143 142 
3 143 139 144 
4 139 90 91 144 
3 91 144 99 
4 140 141 146 145 
3 141 142 146 
4 142 147 148 146 
3 143 142 149 
4 142 147 150 149 
4 143 144 151 149 
4 144 99 101 151 
4 145 146 153 152 
3 153 146 154 
4 146 148 155 154 
3 156 154 149 
4 154 155 150 149 
4 149 151 157 156 
4 151 101 106 157 
3 153 152 158 
4 152 110 112 158 
4 153 154 159 158 
4 154 156 160 159 
3 156 157 160 
4 157 114 113 160 
3 157 114 106 
3 112 158 123 
4 158 123 126 159 
4 159 126 128 160 
3 160 128 113 
4 54 72 73 55 
3 55 73 56 
4 72 79 80 73 
6 73 80 81 82 70 56 
3 70 83 84 
3 90 83 91 
6 83 91 92 93 94 84 
3 94 95 96 
4 99 95 100 101 
4 95 96 102 100 
4 101 100 105 106 
4 100 102 107 105 
3 113 114 115 
6 114 115 116 117 105 106 
3 105 118 107 
4 126 125 127 128 
6 128 127 129 130 115 113 
3 115 131 132 
4 125 134 135 127 
3 127 135 136 
4 79 138 139 80 
3 80 139 90 
4 138 139 143 142 
3 143 139 144 
4 139 90 91 144 
3 91 144 99 
3 143 142 149 
4 142 147 150 149 
4 143 144 151 149 
4 144 99 101 151 
3 156 154 149 
4 154 155 150 149 
4 149 151 157 156 
4 151 101 106 157 
4 154 156 160 159 
3 156 157 160 
4 157 114 113 160 
3 157 114 106 
4 159 126 128 160 
3 160 128 113 
3 70 83 84 
6 83 91 92 93 94 84 
3 94 95 96 
4 99 95 100 101 
4 95 96 102 100 
4 101 100 105 106 
4 100 102 107 105 
6 114 115 116 117 105 106 
3 105 118 107 
3 115 131 132 
3 91 144 99 
4 144 99 101 151 
4 151 101 106 157 
3 157 114 106 
3 62 63 85 
6 63 61 86 87 88 85 
3 74 89 77 
3 90 83 91 
6 83 91 92 93 94 84 
3 94 95 96 
4 62 85 97 64 
4 85 88 98 97 
4 99 95 100 101 
4 95 96 102 100 
4 64 97 103 65 
4 97 98 104 103 
4 101 100 105 106 
4 100 102 107 105 
3 65 103 67 
6 103 104 108 109 68 67 
3 110 111 112 
3 113 114 115 
6 114 115 116 117 105 106 
3 105 118 107 
3 68 111 119 
6 111 112 120 121 122 119 
4 123 124 125 126 
4 126 125 127 128 
6 128 127 129 130 115 113 
3 115 131 132 
3 122 124 133 
4 124 133 134 125 
4 125 134 135 127 
3 127 135 136 
3 88 89 140 
3 141 140 137 
4 140 89 77 137 
4 137 138 142 141 
4 138 139 143 142 
3 143 139 144 
4 139 90 91 144 
3 91 144 99 
4 88 140 145 98 
4 140 141 146 145 
3 141 142 146 
4 142 147 148 146 
3 143 142 149 
4 142 147 150 149 
4 143 144 151 149 
4 144 99 101 151 
4 98 145 152 104 
4 145 146 153 152 
3 153 146 154 
4 146 148 155 154 
3 156 154 149 
4 154 155 150 149 
4 149 151 157 156 
4 151 101 106 157 
3 104 152 110 
3 153 152 158 
4 152 110 112 158 
4 153 154 159 158 
4 154 156 160 159 
3 156 157 160 
4 157 114 113 160 
3 157 114 106 
3 112 158 123 
4 158 123 126 159 
4 159 126 128 160 
3 160 128 113 
3 74 89 77 
6 83 91 92 93 94 84 
3 94 95 96 
4 99 95 100 101 
4 95 96 102 100 
4 101 100 105 106 
4 100 102 107 105 
3 113 114 115 
6 114 115 116 117 105 106 
3 105 118 107 
6 111 112 120 121 122 119 
4 123 124 125 126 
4 126 125 127 128 
6 128 127 129 130 115 113 
3 115 131 132 
3 122 124 133 
4 124 133 134 125 
4 125 134 135 127 
3 127 135 136 
3 141 140 137 
4 140 89 77 137 
4 137 138 142 141 
4 138 139 143 142 
3 143 139 144 
4 139 90 91 144 
3 91 144 99 
4 140 141 146 145 
3 141 142 146 
4 142 147 148 146 
3 143 142 149 
4 142 147 150 149 
4 143 144 151 149 
4 144 99 101 151 
4 145 146 153 152 
3 153 146 154 
4 146 148 155 154 
3 156 154 149 
4 154 155 150 149 
4 149 151 157 156 
4 151 101 106 157 
3 153 152 158 
4 152 110 112 158 
4 153 154 159 158 
4 154 156 160 159 
3 156 157 160 
4 157 114 113 160 
3 157 114 106 
3 112 158 123 
4 158 123 126 159 
4 159 126 128 160 
3 160 128 113 
3 90 83 91 
6 83 91 92 93 94 84 
3 94 95 96 
4 99 95 100 101 
4 95 96 102 100 
4 101 100 105 106 
4 100 102 107 105 
3 113 114 115 
6 114 115 116 117 105 106 
3 105 118 107 
4 126 125 127 128 
6 128 127 129 130 115 113 
3 115 131 132 
4 125 134 135 127 
3 127 135 136 
4 138 139 143 142 
3 143 139 144 
4 139 90 91 144 
3 91 144 99 
3 143 142 149 
4 142 147 150 149 
4 143 144 151 149 
4 144 99 101 151 
3 156 154 149 
4 154 155 150 149 
4 149 151 157 156 
4 151 101 106 157 
4 154 156 160 159 
3 156 157 160 
4 157 114 113 160 
3 157 114 106 
4 159 126 128 160 
3 160 128 113 
6 83 91 92 93 94 84 
3 94 95 96 
4 99 95 100 101 
4 95 96 102 100 
4 101 100 105 106 
4 100 102 107 105 
6 114 115 116 117 105 106 
3 105 118 107 
3 115 131 132 
3 91 144 99 
4 144 99 101 151 
4 151 101 106 157 
3 157 114 106 
4 64 97 103 65 
4 97 98 104 103 
4 101 100 105 106 
4 100 102 107 105 
3 65 103 67 
6 103 104 108 109 68 67 
3 110 111 112 
3 113 114 115 
6 114 115 116 117 105 106 
3 105 118 107 
3 68 111 119 
6 111 112 120 121 122 119 
4 123 124 125 126 
4 126 125 127 128 
6 128 127 129 130 115 113 
3 115 131 132 
3 122 124 133 
4 124 133 134 125 
4 125 134 135 127 
3 127 135 136 
4 98 145 152 104 
4 145 146 153 152 
3 153 146 154 
4 146 148 155 154 
3 156 154 149 
4 154 155 150 149 
4 149 151 157 156 
4 151 101 106 157 
3 104 152 110 
3 153 152 158 
4 152 110 112 158 
4 153 154 159 158 
4 154 156 160 159 
3 156 157 160 
4 157 114 113 160 
3 157 114 106 
3 112 158 123 
4 158 123 126 159 
4 159 126 128 160 
3 160 128 113 
4 101 100 105 106 
4 100 102 107 105 
3 113 114 115 
6 114 115 116 117 105 106 
3 105 118 107 
6 111 112 120 121 122 119 
4 123 124 125 126 
4 126 125 127 128 
6 128 127 129 130 115 113 
3 115 131 132 
3 122 124 133 
4 124 133 134 125 
4 125 134 135 127 
3 127 135 136 
4 145 146 153 152 
3 153 146 154 
4 146 148 155 154 
3 156 154 149 
4 154 155 150 149 
4 149 151 157 156 
4 151 101 106 157 
3 153 152 158 
4 152 110 112 158 
4 153 154 159 158 
4 154 156 160 159 
3 156 157 160 
4 157 114 113 160 
3 157 114 106 
3 112 158 123 
4 158 123 126 159 
4 159 126 128 160 
3 160 128 113 
4 101 100 105 106 
4 100 102 107 105 
3 113 114 115 
6 114 115 116 117 105 106 
3 105 118 107 
4 126 125 127 128 
6 128 127 129 130 115 113 
3 115 131 132 
4 125 134 135 127 
3 127 135 136 
3 156 154 149 
4 154 155 150 149 
4 149 151 157 156 
4 151 101 106 157 
4 154 156 160 159 
3 156 157 160 
4 157 114 113 160 
3 157 114 106 
4 159 126 128 160 
3 160 128 113 
4 101 100 105 106 
4 100 102 107 105 
6 114 115 116 117 105 106 
3 105 118 107 
3 115 131 132 
4 151 101 106 157 
3 157 114 106 
3 68 111 119 
6 111 112 120 121 122 119 
4 123 124 125 126 
4 126 125 127 128 
6 128 127 129 130 115 113 
3 115 131 132 
3 122 124 133 
4 124 133 134 125 
4 125 134 135 127 
3 127 135 136 
3 112 158 123 
4 158 123 126 159 
4 159 126 128 160 
3 160 128 113 
6 111 112 120 121 122 119 
4 123 124 125 126 
4 126 125 127 128 
6 128 127 129 130 115 113 
3 115 131 132 
3 122 124 133 
4 124 133 134 125 
4 125 134 135 127 
3 127 135 136 
3 112 158 123 
4 158 123 126 159 
4 159 126 128 160 
3 160 128 113 
4 126 125 127 128 
6 128 127 129 130 115 113 
3 115 131 132 
4 125 134 135 127 
3 127 135 136 
4 159 126 128 160 
3 160 128 113 
3 115 131 132 
3 36 34 37 
4 34 35 38 37 
4 37 39 40 36 
4 34 36 55 54 
3 36 55 40 
4 55 56 57 40 
3 56 57 70 
4 54 72 73 55 
3 55 73 56 
4 72 79 80 73 
6 73 80 81 82 70 56 
3 70 83 84 
3 90 83 91 
6 83 91 92 93 94 84 
3 94 95 96 
4 99 95 100 101 
4 95 96 102 100 
4 101 100 105 106 
4 100 102 107 105 
3 113 114 115 
6 114 115 116 117 105 106 
3 105 118 107 
4 126 125 127 128 
6 128 127 129 130 115 113 
3 115 131 132 
4 125 134 135 127 
3 127 135 136 
4 79 138 139 80 
3 80 139 90 
4 138 139 143 142 
3 143 139 144 
4 139 90 91 144 
3 91 144 99 
3 143 142 149 
4 142 147 150 149 
4 143 144 151 149 
4 144 99 101 151 
3 156 154 149 
4 154 155 150 149 
4 149 151 157 156 
4 151 101 106 157 
4 154 156 160 159 
3 156 157 160 
4 157 114 113 160 
3 157 114 106 
4 159 126 128 160 
3 160 128 113 
3 70 83 84 
6 83 91 92 93 94 84 
3 94 95 96 
4 99 95 100 101 
4 95 96 102 100 
4 101 100 105 106 
4 100 102 107 105 
6 114 115 116 117 105 106 
3 105 118 107 
3 115 131 132 
3 91 144 99 
4 144 99 101 151 
4 151 101 106 157 
3 157 114 106 
3 90 83 91 
6 83 91 92 93 94 84 
3 94 95 96 
4 99 95 100 101 
4 95 96 102 100 
4 101 100 105 106 
4 100 102 107 105 
3 113 114 115 
6 114 115 116 117 105 106 
3 105 118 107 
4 126 125 127 128 
6 128 127 129 130 115 113 
3 115 131 132 
4 125 134 135 127 
3 127 135 136 
4 138 139 143 142 
3 143 139 144 
4 139 90 91 144 
3 91 144 99 
3 143 142 149 
4 142 147 150 149 
4 143 144 151 149 
4 144 99 101 151 
3 156 154 149 
4 154 155 150 149 
4 149 151 157 156 
4 151 101 106 157 
4 154 156 160 159 
3 156 157 160 
4 157 114 113 160 
3 157 114 106 
4 159 126 128 160 
3 160 128 113 
6 83 91 92 93 94 84 
3 94 95 96 
4 99 95 100 101 
4 95 96 102 100 
4 101 100 105 106 
4 100 102 107 105 
6 114 115 116 117 105 106 
3 105 118 107 
3 115 131 132 
3 91 144 99 
4 144 99 101 151 
4 151 101 106 157 
3 157 114 106 
4 101 100 105 106 
4 100 102 107 105 
3 113 114 115 
6 114 115 116 117 105 106 
3 105 118 107 
4 126 125 127 128 
6 128 127 129 130 115 113 
3 115 131 132 
4 125 134 135 127 
3 127 135 136 
3 156 154 149 
4 154 155 150 149 
4 149 151 157 156 
4 151 101 106 157 
4 154 156 160 159 
3 156 157 160 
4 157 114 113 160 
3 157 114 106 
4 159 126 128 160 
3 160 128 113 
4 101 100 105 106 
4 100 102 107 105 
6 114 115 116 117 105 106 
3 105 118 107 
3 115 131 132 
4 151 101 106 157 
3 157 114 106 
4 126 125 127 128 
6 128 127 129 130 115 113 
3 115 131 132 
4 125 134 135 127 
3 127 135 136 
4 159 126 128 160 
3 160 128 113 
3 115 131 132 
3 46 44 47 
4 44 45 48 47 
4 47 49 50 46 
4 44 46 65 64 
3 46 50 65 
4 50 66 67 65 
3 67 66 68 
4 64 97 103 65 
4 97 98 104 103 
4 101 100 105 106 
4 100 102 107 105 
3 65 103 67 
6 103 104 108 109 68 67 
3 110 111 112 
3 113 114 115 
6 114 115 116 117 105 106 
3 105 118 107 
3 68 111 119 
6 111 112 120 121 122 119 
4 123 124 125 126 
4 126 125 127 128 
6 128 127 129 130 115 113 
3 115 131 132 
3 122 124 133 
4 124 133 134 125 
4 125 134 135 127 
3 127 135 136 
4 98 145 152 104 
4 145 146 153 152 
3 153 146 154 
4 146 148 155 154 
3 156 154 149 
4 154 155 150 149 
4 149 151 157 156 
4 151 101 106 157 
3 104 152 110 
3 153 152 158 
4 152 110 112 158 
4 153 154 159 158 
4 154 156 160 159 
3 156 157 160 
4 157 114 113 160 
3 157 114 106 
3 112 158 123 
4 158 123 126 159 
4 159 126 128 160 
3 160 128 113 
4 101 100 105 106 
4 100 102 107 105 
3 113 114 115 
6 114 115 116 117 105 106 
3 105 118 107 
6 111 112 120 121 122 119 
4 123 124 125 126 
4 126 125 127 128 
6 128 127 129 130 115 113 
3 115 131 132 
3 122 124 133 
4 124 133 134 125 
4 125 134 135 127 
3 127 135 136 
4 145 146 153 152 
3 153 146 154 
4 146 148 155 154 
3 156 154 149 
4 154 155 150 149 
4 149 151 157 156 
4 151 101 106 157 
3 153 152 158 
4 152 110 112 158 
4 153 154 159 158 
4 154 156 160 159 
3 156 157 160 
4 157 114 113 160 
3 157 114 106 
3 112 158 123 
4 158 123 126 159 
4 159 126 128 160 
3 160 128 113 
4 101 100 105 106 
4 100 102 107 105 
3 113 114 115 
6 114 115 116 117 105 106 
3 105 118 107 
4 126 125 127 128 
6 128 127 129 130 115 113 
3 115 131 132 
4 125 134 135 127 
3 127 135 136 
3 156 154 149 
4 154 155 150 149 
4 149 151 157 156 
4 151 101 106 157 
4 154 156 160 159 
3 156 157 160 
4 157 114 113 160 
3 157 114 106 
4 159 126 128 160 
3 160 128 113 
4 101 100 105 106 
4 100 102 107 105 
6 114 115 116 117 105 106 
3 105 118 107 
3 115 131 132 
4 151 101 106 157 
3 157 114 106 
3 68 111 119 
6 111 112 120 121 122 119 
4 123 124 125 126 
4 126 125 127 128 
6 128 127 129 130 115 113 
3 115 131 132 
3 122 124 133 
4 124 133 134 125 
4 125 134 135 127 
3 127 135 136 
3 112 158 123 
4 158 123 126 159 
4 159 126 128 160 
3 160 128 113 
6 111 112 120 121 122 119 
4 123 124 125 126 
4 126 125 127 128 
6 128 127 129 130 115 113 
3 115 131 132 
3 122 124 133 
4 124 133 134 125 
4 125 134 135 127 
3 127 135 136 
3 112 158 123 
4 158 123 126 159 
4 159 126 128 160 
3 160 128 113 
4 126 125 127 128 
6 128 127 129 130 115 113 
3 115 131 132 
4 125 134 135 127 
3 127 135 136 
4 159 126 128 160 
3 160 128 113 
3 115 131 132 
4 101 100 105 106 
4 100 102 107 105 
3 113 114 115 
6 114 115 116 117 105 106 
3 105 118 107 
4 126 125 127 128 
6 128 127 129 130 115 113 
3 115 131 132 
4 125 134 135 127 
3 127 135 136 
3 156 154 149 
4 154 155 150 149 
4 149 151 157 156 
4 151 101 106 157 
4 154 156 160 159 
3 156 157 160 
4 157 114 113 160 
3 157 114 106 
4 159 126 128 160 
3 160 128 113 
4 101 100 105 106 
4 100 102 107 105 
6 114 115 116 117 105 106 
3 105 118 107 
3 115 131 132 
4 151 101 106 157 
3 157 114 106 
4 126 125 127 128 
6 128 127 129 130 115 113 
3 115 131 132 
4 125 134 135 127 
3 127 135 136 
4 159 126 128 160 
3 160 128 113 
3 115 131 132 
3 36 34 37 
4 34 35 38 37 
4 37 39 40 36 
4 34 36 55 54 
3 36 55 40 
4 55 56 57 40 
3 56 57 70 
4 54 72 73 55 
3 55 73 56 
4 72 79 80 73 
6 73 80 81 82 70 56 
3 70 83 84 
3 90 83 91 
6 83 91 92 93 94 84 
3 94 95 96 
4 99 95 100 101 
4 95 96 102 100 
4 101 100 105 106 
4 100 102 107 105 
6 114 115 116 117 105 106 
3 105 118 107 
4 126 125 127 128 
6 128 127 129 130 115 113 
3 115 131 132 
4 125 134 135 127 
3 127 135 136 
4 79 138 139 80 
3 80 139 90 
4 138 139 143 142 
3 143 139 144 
4 139 90 91 144 
3 91 144 99 
3 143 142 149 
4 142 147 150 149 
4 143 144 151 149 
4 144 99 101 151 
3 156 154 149 
4 154 155 150 149 
4 149 151 157 156 
4 151 101 106 157 
4 154 156 160 159 
3 156 157 160 
4 157 114 113 160 
3 157 114 106 
4 159 126 128 160 
3 160 128 113 
3 70 83 84 
6 83 91 92 93 94 84 
3 94 95 96 
4 99 95 100 101 
4 95 96 102 100 
4 101 100 105 106 
4 100 102 107 105 
6 114 115 116 117 105 106 
3 105 118 107 
3 115 131 132 
3 91 144 99 
4 144 99 101 151 
4 151 101 106 157 
3 157 114 106 
3 90 83 91 
6 83 91 92 93 94 84 
3 94 95 96 
4 99 95 100 101 
4 95 96 102 100 
4 101 100 105 106 
4 100 102 107 105 
3 113 114 115 
6 114 115 116 117 105 106 
3 105 118 107 
4 126 125 127 128 
6 128 127 129 130 115 113 
3 115 131 132 
4 125 134 135 127 
3 127 135 136 
4 138 139 143 142 
3 143 139 144 
4 139 90 91 144 
3 91 144 99 
3 143 142 149 
4 142 147 150 149 
4 143 144 151 149 
4 144 99 101 151 
3 156 154 149 
4 154 155 150 149 
4 149 151 157 156 
4 151 101 106 157 
4 154 156 160 159 
3 156 157 160 
4 157 114 113 160 
3 157 114 106 
4 159 126 128 160 
3 160 128 113 
6 83 91 92 93 94 84 
3 94 95 96 
4 99 95 100 101 
4 95 96 102 100 
4 101 100 105 106 
4 100 102 107 105 
6 114 115 116 117 105 106 
3 105 118 107 
3 115 131 132 
3 91 144 99 
4 144 99 101 151 
4 151 101 106 157 
3 157 114 106 
4 101 100 105 106 
4 100 102 107 105 
3 113 114 115 
6 114 115 116 117 105 106 
3 105 118 107 
4 126 125 127 128 
6 128 127 129 130 115 113 
3 115 131 132 
4 125 134 135 127 
3 127 135 136 
3 156 154 149 
4 154 155 150 149 
4 149 151 157 156 
4 151 101 106 157 
4 154 156 160 159 
3 156 157 160 
4 157 114 113 160 
3 157 114 106 
4 159 126 128 160 
3 160 128 113 
4 101 100 105 106 
4 100 102 107 105 
6 114 115 116 117 105 106 
3 105 118 107 
3 115 131 132 
4 151 101 106 157 
3 157 114 106 
4 126 125 127 128 
6 128 127 129 130 115 113 
3 115 131 132 
4 125 134 135 127 
3 127 135 136 
4 159 126 128 160 
3 160 128 113 
3 115 131 132 
4 101 100 105 106 
4 100 102 107 105 
3 113 114 115 
6 114 115 116 117 105 106 
3 105 118 107 
4 126 125 127 128 
6 128 127 129 130 115 113 
3 115 131 132 
4 125 134 135 127 
3 127 135 136 
3 156 154 149 
4 154 155 150 149 
4 149 151 157 156 
4 151 101 106 157 
4 154 156 160 159 
3 156 157 160 
4 157 114 113 160 
3 157 114 106 
4 159 126 128 160 
3 160 128 113 
4 101 100 105 106 
4 100 102 107 105 
6 114 115 116 117 105 106 
3 105 118 107 
3 115 131 132 
4 151 101 106 157 
3 157 114 106 
4 126 125 127 128 
6 128 127 129 130 115 113 
3 115 131 132 
4 125 134 135 127 
3 127 135 136 
4 159 126 128 160 
3 160 128 113 
3 115 131 132 
3 46 44 47 
4 44 45 48 47 
4 47 49 50 46 
4 44 46 65 64 
3 46 50 65 
4 50 66 67 65 
3 67 66 68 
4 64 97 103 65 
4 97 98 104 103 
4 101 100 105 106 
4 100 102 107 105 
3 65 103 67 
6 103 104 108 109 68 67 
3 110 111 112 
3 113 114 115 
6 114 115 116 117 105 106 
3 105 118 107 
3 68 111 119 
6 111 112 120 121 122 119 
4 123 124 125 126 
4 126 125 127 128 
6 128 127 129 130 115 113 
3 115 131 132 
3 122 124 133 
4 124 133 134 125 
4 125 134 135 127 
3 127 135 136 
4 98 145 152 104 
4 145 146 153 152 
3 153 146 154 
4 146 148 155 154 
3 156 154 149 
4 154 155 150 149 
4 149 151 157 156 
4 151 101 106 157 
3 104 152 110 
3 153 152 158 
4 152 110 112 158 
4 153 154 159 158 
4 154 156 160 159 
3 156 157 160 
4 157 114 113 160 
3 157 114 106 
3 112 158 123 
4 158 123 126 159 
4 159 126 128 160 
3 160 128 113 
4 101 100 105 106 
4 100 102 107 105 
3 110 111 112 
3 113 114 115 
6 114 115 116 117 105 106 
3 105 118 107 
6 111 112 120 121 122 119 
4 123 124 125 126 
4 126 125 127 128 
6 128 127 129 130 115 113 
3 115 131 132 
3 122 124 133 
4 124 133 134 125 
4 125 134 135 127 
3 127 135 136 
4 145 146 153 152 
3 153 146 154 
4 146 148 155 154 
3 156 154 149 
4 154 155 150 149 
4 149 151 157 156 
4 151 101 106 157 
3 153 152 158 
4 152 110 112 158 
4 153 154 159 158 
4 154 156 160 159 
3 156 157 160 
4 157 114 113 160 
3 157 114 106 
3 112 158 123 
4 158 123 126 159 
4 159 126 128 160 
3 160 128 113 
4 101 100 105 106 
4 100 102 107 105 
3 113 114 115 
6 114 115 116 117 105 106 
3 105 118 107 
4 126 125 127 128 
6 128 127 129 130 115 113 
3 115 131 132 
4 125 134 135 127 
3 127 135 136 
3 156 154 149 
4 154 155 150 149 
4 149 151 157 156 
4 151 101 106 157 
4 154 156 160 159 
3 156 157 160 
4 157 114 113 160 
3 157 114 106 
4 159 126 128 160 
3 160 128 113 
4 101 100 105 106 
4 100 102 107 105 
6 114 115 116 117 105 106 
3 105 118 107 
3 115 131 132 
4 151 101 106 157 
3 157 114 106 
3 68 111 119 
6 111 112 120 121 122 119 
4 123 124 125 126 
4 126 125 127 128 
6 128 127 129 130 115 113 
3 115 131 132 
3 122 124 133 
4 124 133 134 125 
4 125 134 135 127 
3 127 135 136 
3 112 158 123 
4 158 123 126 159 
4 159 126 128 160 
3 160 128 113 
6 111 112 120 121 122 119 
4 123 124 125 126 
4 126 125 127 128 
6 128 127 129 130 115 113 
3 115 131 132 
3 122 124 133 
4 124 133 134 125 
4 125 134 135 127 
3 127 135 136 
3 112 158 123 
4 158 123 126 159 
4 159 126 128 160 
3 160 128 113 
4 126 125 127 128 
6 128 127 129 130 115 113 
3 115 131 132 
4 125 134 135 127 
3 127 135 136 
4 159 126 128 160 
3 160 128 113 
3 115 131 132 
4 101 100 105 106 
4 100 102 107 105 
3 113 114 115 
6 114 115 116 117 105 106 
3 105 118 107 
4 126 125 127 128 
6 128 127 129 130 115 113 
3 115 131 132 
4 125 134 135 127 
3 127 135 136 
3 156 154 149 
4 154 155 150 149 
4 149 151 157 156 
4 151 101 106 157 
4 154 156 160 159 
3 156 157 160 
4 157 114 113 160 
3 157 114 106 
4 159 126 128 160 
3 160 128 113 
4 101 100 105 106 
4 100 102 107 105 
6 114 115 116 117 105 106 
3 105 118 107 
3 115 131 132 
4 151 101 106 157 
3 157 114 106 
4 126 125 127 128 
6 128 127 129 130 115 113 
3 115 131 132 
4 125 134 135 127 
3 127 135 136 
4 159 126 128 160 
3 160 128 113 
3 115 131 132 
4 101 100 105 106 
4 100 102 107 105 
3 113 114 115 
6 114 115 116 117 105 106 
3 105 118 107 
4 126 125 127 128 
6 128 127 129 130 115 113 
3 115 131 132 
4 125 134 135 127 
3 127 135 136 
3 156 154 149 
4 154 155 150 149 
4 149 151 157 156 
4 151 101 106 157 
4 154 156 160 159 
3 156 157 160 
4 157 114 113 160 
3 157 114 106 
4 159 126 128 160 
3 160 128 113 
4 101 100 105 106 
4 100 102 107 105 
6 114 115 116 117 105 106 
3 105 118 107 
3 115 131 132 
4 151 101 106 157 
3 157 114 106 
4 126 125 127 128 
6 128 127 129 130 115 113 
3 115 131 132 
4 125 134 135 127 
3 127 135 136 
4 159 126 128 160 
3 160 128 113 
3 115 131 132 
